<svg width="1024" height="1024" viewBox="0 0 1024 1024" fill="none" xmlns="http://www.w3.org/2000/svg">
<rect width="1024" height="1024" fill="black"/>
<path d="M169 297.625C169 250.329 207.454 211.875 254.75 211.875H769.25C816.547 211.875 855 250.329 855 297.625V726.375C855 773.672 816.547 812.125 769.25 812.125H254.75C207.454 812.125 169 773.672 169 726.375V297.625ZM233.312 662.062V704.938C233.312 716.728 242.959 726.375 254.75 726.375H297.625C309.416 726.375 319.062 716.728 319.062 704.938V662.062C319.062 650.272 309.416 640.625 297.625 640.625H254.75C242.959 640.625 233.312 650.272 233.312 662.062ZM726.375 640.625C714.584 640.625 704.938 650.272 704.938 662.062V704.938C704.938 716.728 714.584 726.375 726.375 726.375H769.25C781.041 726.375 790.688 716.728 790.688 704.938V662.062C790.688 650.272 781.041 640.625 769.25 640.625H726.375ZM233.312 490.562V533.438C233.312 545.228 242.959 554.875 254.75 554.875H297.625C309.416 554.875 319.062 545.228 319.062 533.438V490.562C319.062 478.772 309.416 469.125 297.625 469.125H254.75C242.959 469.125 233.312 478.772 233.312 490.562ZM726.375 469.125C714.584 469.125 704.938 478.772 704.938 490.562V533.438C704.938 545.228 714.584 554.875 726.375 554.875H769.25C781.041 554.875 790.688 545.228 790.688 533.438V490.562C790.688 478.772 781.041 469.125 769.25 469.125H726.375ZM233.312 319.062V361.938C233.312 373.728 242.959 383.375 254.75 383.375H297.625C309.416 383.375 319.062 373.728 319.062 361.938V319.062C319.062 307.272 309.416 297.625 297.625 297.625H254.75C242.959 297.625 233.312 307.272 233.312 319.062ZM726.375 297.625C714.584 297.625 704.938 307.272 704.938 319.062V361.938C704.938 373.728 714.584 383.375 726.375 383.375H769.25C781.041 383.375 790.688 373.728 790.688 361.938V319.062C790.688 307.272 781.041 297.625 769.25 297.625H726.375ZM383.375 340.5V426.25C383.375 449.965 402.535 469.125 426.25 469.125H597.75C621.465 469.125 640.625 449.965 640.625 426.25V340.5C640.625 316.785 621.465 297.625 597.75 297.625H426.25C402.535 297.625 383.375 316.785 383.375 340.5ZM426.25 554.875C402.535 554.875 383.375 574.035 383.375 597.75V683.5C383.375 707.215 402.535 726.375 426.25 726.375H597.75C621.465 726.375 640.625 707.215 640.625 683.5V597.75C640.625 574.035 621.465 554.875 597.75 554.875H426.25Z" fill="white"/>
</svg>
